<?xml version="1.0" encoding="UTF-8" standalone="no"?>
<!-- Created with Inkscape (http://www.inkscape.org/) -->

<svg
   xmlns:dc="http://purl.org/dc/elements/1.1/"
   xmlns:cc="http://creativecommons.org/ns#"
   xmlns:rdf="http://www.w3.org/1999/02/22-rdf-syntax-ns#"
   xmlns:svg="http://www.w3.org/2000/svg"
   xmlns="http://www.w3.org/2000/svg"
   xmlns:sodipodi="http://sodipodi.sourceforge.net/DTD/sodipodi-0.dtd"
   xmlns:inkscape="http://www.inkscape.org/namespaces/inkscape"
   width="12.170834mm"
   height="12.170826mm"
   viewBox="0 0 12.170834 12.170826"
   version="1.1"
   id="svg4219"
   sodipodi:docname="second_layer.svg"
   inkscape:version="0.92.4 5da689c313, 2019-01-14">
  <defs
     id="defs4213" />
  <sodipodi:namedview
     id="base"
     pagecolor="#ffffff"
     bordercolor="#666666"
     borderopacity="1.0"
     inkscape:pageopacity="0.0"
     inkscape:pageshadow="2"
     inkscape:zoom="8"
     inkscape:cx="18.464152"
     inkscape:cy="33.929502"
     inkscape:document-units="mm"
     inkscape:current-layer="layer1"
     showgrid="true"
     inkscape:window-width="1820"
     inkscape:window-height="955"
     inkscape:window-x="50"
     inkscape:window-y="75"
     inkscape:window-maximized="1">
    <inkscape:grid
       type="xygrid"
       id="grid4221"
       spacingx="0.13229167"
       spacingy="0.13229167"
       originx="-0.52916692"
       originy="-284.2948" />
  </sodipodi:namedview>
  <metadata
     id="metadata4216">
    <rdf:RDF>
      <cc:Work
         rdf:about="">
        <dc:format>image/svg+xml</dc:format>
        <dc:type
           rdf:resource="http://purl.org/dc/dcmitype/StillImage" />
        <dc:title></dc:title>
      </cc:Work>
    </rdf:RDF>
  </metadata>
  <g
     inkscape:label="Layer 1"
     inkscape:groupmode="layer"
     id="layer1"
     transform="translate(-0.52916689,-0.53436746)">
    <path
       style="fill:#808080;stroke-width:0.015625"
       d="m 5.574563,10.411098 c -0.2744722,0.06934 -0.4308754,0.32527 -0.6319667,0.502903 -1.2244176,1.228728 -2.4584657,2.448087 -3.673163,3.686364 -0.2166481,0.2385 -0.1941344,0.644597 0.056134,0.8507 0.1818671,0.171674 0.4429928,0.153174 0.6742559,0.152731 2.7675834,0.01137 5.5354758,0.0082 8.3029108,0.0058 0.235133,7.96e-4 0.415386,-0.164859 0.563416,-0.328626 1.289872,-1.291434 2.583257,-2.579734 3.870912,-3.873148 0.239338,-0.240595 0.210194,-0.680995 -0.06583,-0.880963 -0.22537,-0.189962 -0.535767,-0.116676 -0.805657,-0.131102 -2.723882,0.0012 -5.4480301,-0.0024 -8.1717442,0.0017 -0.039757,0.0045 -0.079514,0.0091 -0.1192714,0.01358 z"
       id="path4423"
       inkscape:connector-curvature="0"
       transform="matrix(0.26458333,0,0,0.26458333,0.52916689,0.53436746)" />
    <path
       style="fill:#808080;stroke-width:0.03125"
       d="M 10.470035,5.4406159 C 10.099826,5.6572075 9.8473388,6.0236382 9.529378,6.3066329 8.4347631,7.4066738 7.3285347,8.4970374 6.2411654,9.6031157 5.9382346,9.9171554 6.1203635,10.496395 6.5480512,10.581592 c 0.6133093,0.04637 1.2366939,0.007 1.8538689,0.02004 2.3121599,-0.0038 4.6256809,0.0075 6.9369889,-0.0056 0.414804,-0.04121 0.628212,-0.456232 0.923822,-0.700449 1.160902,-1.1663365 2.333419,-2.3229939 3.487078,-3.4953658 0.30293,-0.3140397 0.120801,-0.8932795 -0.306886,-0.9784765 -0.613309,-0.046374 -1.236694,-0.00696 -1.853869,-0.020034 -2.31216,0.00375 -4.625681,-0.0075 -6.93699,0.00563 -0.06068,0.011105 -0.121352,0.02221 -0.182029,0.033315 z"
       id="path4425"
       inkscape:connector-curvature="0"
       transform="matrix(0.26458333,0,0,0.26458333,0.52916689,0.53436746)" />
    <path
       style="fill:#808080;stroke-width:0.03125"
       d="m 15.470035,0.44061588 c -0.370209,0.21659159 -0.622696,0.58302232 -0.940657,0.86601702 -1.094615,1.1000409 -2.200843,2.1904045 -3.288213,3.2964828 -0.30293,0.3140397 -0.120802,0.8932797 0.306886,0.9784766 0.613309,0.046374 1.236694,0.00696 1.853869,0.020034 2.31216,-0.00375 4.625681,0.0075 6.936989,-0.00563 0.414804,-0.04121 0.628212,-0.4562319 0.923822,-0.7004487 1.160902,-1.1663365 2.333419,-2.3229938 3.487077,-3.4953657 0.302931,-0.3140398 0.120802,-0.89327955 -0.306885,-0.97847661 -0.61331,-0.0463744 -1.236694,-0.006959 -1.853869,-0.0200343 -2.31216,0.00375 -4.625681,-0.0075 -6.93699,0.005626 -0.06068,0.0111048 -0.121352,0.0222097 -0.182029,0.0333146 z"
       id="path4427"
       inkscape:connector-curvature="0"
       transform="matrix(0.26458333,0,0,0.26458333,0.52916689,0.53436746)" />
    <path
       style="fill:#808080;stroke-width:0.03125"
       d="m 25.470035,0.44061588 c -0.370209,0.21659159 -0.622696,0.58302232 -0.940657,0.86601702 -1.094615,1.1000409 -2.200843,2.1904045 -3.288213,3.2964828 -0.30293,0.3140397 -0.120802,0.8932797 0.306886,0.9784766 0.613309,0.046374 1.236694,0.00696 1.853869,0.020034 2.31216,-0.00375 4.625681,0.0075 6.936989,-0.00563 0.414804,-0.04121 0.628212,-0.4562319 0.923822,-0.7004487 1.160902,-1.1663365 2.333419,-2.3229938 3.487077,-3.4953657 0.302931,-0.3140398 0.120802,-0.89327955 -0.306885,-0.97847661 -0.61331,-0.0463744 -1.236694,-0.006959 -1.853869,-0.0200343 -2.31216,0.00375 -4.625681,-0.0075 -6.93699,0.005626 -0.06068,0.0111048 -0.121352,0.0222097 -0.182029,0.0333146 z"
       id="path4429"
       inkscape:connector-curvature="0"
       transform="matrix(0.26458333,0,0,0.26458333,0.52916689,0.53436746)" />
    <path
       style="fill:#808080;stroke-width:0.03125"
       d="m 20.470035,5.4406159 c -0.370209,0.2165916 -0.622696,0.5830223 -0.940657,0.866017 -1.094615,1.1000409 -2.200843,2.1904045 -3.288213,3.2964828 -0.30293,0.3140397 -0.120802,0.8932793 0.306886,0.9784763 0.613309,0.04637 1.236694,0.007 1.853869,0.02004 2.31216,-0.0038 4.625681,0.0075 6.936989,-0.0056 0.414804,-0.04121 0.628212,-0.456232 0.923822,-0.700449 1.160902,-1.1663365 2.333419,-2.3229939 3.487077,-3.4953658 0.302931,-0.3140397 0.120802,-0.8932795 -0.306885,-0.9784765 -0.61331,-0.046374 -1.236694,-0.00696 -1.853869,-0.020034 -2.31216,0.00375 -4.625681,-0.0075 -6.93699,0.00563 -0.06068,0.011105 -0.121352,0.02221 -0.182029,0.033315 z"
       id="path4431"
       inkscape:connector-curvature="0"
       transform="matrix(0.26458333,0,0,0.26458333,0.52916689,0.53436746)" />
    <path
       style="fill:#808080;stroke-width:0.03125"
       d="m 15.470035,10.440616 c -0.370209,0.216591 -0.622696,0.583022 -0.940657,0.866017 -1.094615,1.100041 -2.200843,2.190404 -3.288213,3.296483 -0.30293,0.314039 -0.120802,0.893279 0.306886,0.978476 0.613309,0.04637 1.236694,0.007 1.853869,0.02004 2.31216,-0.0038 4.625681,0.0075 6.936989,-0.0056 0.414804,-0.04121 0.628212,-0.456232 0.923822,-0.700449 1.160902,-1.166337 2.333419,-2.322994 3.487077,-3.495366 0.302931,-0.314039 0.120802,-0.893279 -0.306885,-0.978476 -0.61331,-0.04637 -1.236694,-0.007 -1.853869,-0.02004 -2.31216,0.0038 -4.625681,-0.0075 -6.93699,0.0056 -0.06068,0.0111 -0.121352,0.02221 -0.182029,0.03331 z"
       id="path4433"
       inkscape:connector-curvature="0"
       transform="matrix(0.26458333,0,0,0.26458333,0.52916689,0.53436746)" />
    <path
       style="fill:#808080;stroke-width:0.03125"
       d="m 25.470035,10.440616 c -0.370209,0.216591 -0.622696,0.583022 -0.940657,0.866017 -1.094615,1.100041 -2.200843,2.190404 -3.288213,3.296483 -0.30293,0.314039 -0.120802,0.893279 0.306886,0.978476 0.613309,0.04637 1.236694,0.007 1.853869,0.02004 2.31216,-0.0038 4.625681,0.0075 6.936989,-0.0056 0.414804,-0.04121 0.628212,-0.456232 0.923822,-0.700449 1.160902,-1.166337 2.333419,-2.322994 3.487077,-3.495366 0.302931,-0.314039 0.120802,-0.893279 -0.306885,-0.978476 -0.61331,-0.04637 -1.236694,-0.007 -1.853869,-0.02004 -2.31216,0.0038 -4.625681,-0.0075 -6.93699,0.0056 -0.06068,0.0111 -0.121352,0.02221 -0.182029,0.03331 z"
       id="path4435"
       inkscape:connector-curvature="0"
       transform="matrix(0.26458333,0,0,0.26458333,0.52916689,0.53436746)" />
    <path
       style="fill:#808080;stroke-width:0.03125"
       d="m 20.767093,15.440616 c -0.324547,0.126918 -0.427086,0.492026 -0.387207,0.811035 0.0038,2.926743 -0.0075,5.854847 0.0056,8.780739 0.01189,0.37639 0.396021,0.622328 0.7506,0.569237 2.968409,-0.0038 5.938181,0.0075 8.905739,-0.0056 0.37639,-0.01189 0.622328,-0.396021 0.569237,-0.7506 -0.0038,-2.957993 0.0075,-5.917347 -0.0056,-8.874489 -0.01189,-0.37639 -0.396021,-0.622328 -0.7506,-0.569237 -2.968409,0.0038 -5.938181,-0.0075 -8.905739,0.0056 -0.06068,0.0111 -0.121353,0.02221 -0.18203,0.03331 z"
       id="path4437"
       inkscape:connector-curvature="0"
       transform="matrix(0.26458333,0,0,0.26458333,0.52916689,0.53436746)" />
    <path
       style="fill:#808080;stroke-width:0.08838835"
       d="M 30.381235,5.4887779 C 28.982999,6.8846701 27.5517,8.265575 26.19966,9.6987465 c -0.407166,0.5304885 0.266001,1.1152425 0.818502,0.9457305 2.766703,-0.01801 5.544572,0.03585 8.304339,-0.02682 0.669135,-0.242007 1.041354,-0.9638661 1.589686,-1.3995231 0.950605,-1.0012799 2.017262,-1.9177215 2.894757,-2.9724472 0.320911,-0.5306664 -0.350519,-1.0157251 -0.859117,-0.8672266 -2.766704,0.018011 -5.544572,-0.035846 -8.304339,0.026815 -0.08742,0.027832 -0.174835,0.055665 -0.262253,0.083498 z"
       id="path4439"
       inkscape:connector-curvature="0"
       transform="matrix(0.26458333,0,0,0.26458333,0.52916689,0.53436746)" />
    <path
       style="fill:#808080;stroke-width:0.08838835"
       d="M 35.419371,0.45064206 C 34.021134,1.8465343 32.589836,3.2274392 31.237795,4.6606107 30.83063,5.1910991 31.503796,5.7758536 32.056298,5.6063412 34.823001,5.5883299 37.60087,5.6421873 40.360637,5.579526 41.029772,5.3375191 41.40199,4.6156601 41.950323,4.1800031 42.900928,3.1787232 43.967585,2.2622816 44.84508,1.2075558 45.165991,0.67688954 44.494561,0.19183082 43.985963,0.34032925 c -2.766704,0.0180114 -5.544572,-0.0358461 -8.30434,0.0268153 -0.08742,0.0278325 -0.174835,0.055665 -0.262252,0.0834975 z"
       id="path4441"
       inkscape:connector-curvature="0"
       transform="matrix(0.26458333,0,0,0.26458333,0.52916689,0.53436746)" />
    <path
       style="fill:#808080;stroke-width:0.08838835"
       d="m 44.578095,1.267889 c -1.36094,1.3895544 -2.780786,2.7361141 -4.10536,4.1521795 -0.301617,0.6442273 -0.05509,1.417447 -0.134864,2.1130352 0.02048,2.2877006 -0.04827,4.5805093 0.07371,6.8649433 0.137296,0.61429 0.951093,0.57945 1.248436,0.109961 1.286977,-1.249181 2.584105,-2.504356 3.808564,-3.80669 0.302419,-0.64421 0.05523,-1.4179635 0.135086,-2.113769 -0.01834,-2.32527 0.03545,-4.6617519 -0.02764,-6.9800674 C 45.529317,1.1286846 44.913463,0.95106351 44.57809,1.267889 Z"
       id="path4443"
       inkscape:connector-curvature="0"
       transform="matrix(0.26458333,0,0,0.26458333,0.52916689,0.53436746)" />
    <path
       style="fill:#808080;stroke-width:0.08838835"
       d="m 39.629902,6.2184996 c -1.361357,1.3860025 -2.781573,2.7289358 -4.106497,4.1415974 -0.302433,0.644122 -0.05519,1.417865 -0.13507,2.113605 0.01835,2.325212 -0.03545,4.661636 0.02764,6.979894 0.08745,0.66335 0.977257,0.600712 1.247661,0.08932 1.277679,-1.306146 2.614354,-2.569226 3.855637,-3.901905 0.301617,-0.644227 0.05509,-1.417447 0.134863,-2.113035 -0.01787,-2.321734 0.03575,-4.6545728 -0.02681,-6.9693638 -0.04664,-0.4784497 -0.661945,-0.6563277 -0.997419,-0.3401106 z"
       id="path4445"
       inkscape:connector-curvature="0"
       transform="matrix(0.26458333,0,0,0.26458333,0.52916689,0.53436746)" />
    <path
       style="fill:#808080;stroke-width:0.08838835"
       d="m 34.591766,11.256635 c -1.361357,1.386003 -2.781573,2.728936 -4.106497,4.141597 -0.302423,0.644123 -0.05534,1.417866 -0.135281,2.113605 0.02384,2.294443 -0.05471,4.59535 0.07941,6.885832 0.148589,0.605932 0.951464,0.563038 1.247195,0.09767 1.287151,-1.251495 2.581619,-2.51188 3.804854,-3.817764 0.30108,-0.644232 0.05485,-1.417198 0.134551,-2.112672 -0.01787,-2.321331 0.03575,-4.653768 -0.02681,-6.968156 -0.04664,-0.47845 -0.661945,-0.656328 -0.997419,-0.340111 z"
       id="path4447"
       inkscape:connector-curvature="0"
       transform="matrix(0.26458333,0,0,0.26458333,0.52916689,0.53436746)" />
    <path
       style="fill:#008000;stroke-width:0.08838835"
       d="m 34.591766,21.244519 c -1.361357,1.386002 -2.781573,2.728935 -4.106497,4.141597 -0.302423,0.644122 -0.05534,1.417865 -0.135281,2.113605 0.02049,2.290751 -0.04828,4.586607 0.07371,6.874093 0.137296,0.61429 0.951093,0.57945 1.248435,0.10996 1.286978,-1.24918 2.584105,-2.504356 3.808564,-3.80669 0.30241,-0.64421 0.05538,-1.417963 0.135298,-2.113768 -0.01785,-2.324845 0.03572,-4.660785 -0.02681,-6.978687 -0.04664,-0.478449 -0.661945,-0.656327 -0.997419,-0.34011 z"
       id="path4449"
       inkscape:connector-curvature="0"
       transform="matrix(0.26458333,0,0,0.26458333,0.52916689,0.53436746)" />
    <path
       style="fill:#008000;stroke-width:0.08838835"
       d="m 39.629902,16.206383 c -1.361357,1.386002 -2.781573,2.728936 -4.106497,4.141597 -0.302433,0.644123 -0.05519,1.417866 -0.13507,2.113605 0.01835,2.325212 -0.03545,4.661636 0.02764,6.979895 0.08745,0.66335 0.977257,0.600712 1.247661,0.08932 1.277679,-1.306146 2.614354,-2.569226 3.855637,-3.901905 0.301617,-0.644227 0.05509,-1.417446 0.134863,-2.113035 -0.01787,-2.321733 0.03575,-4.654573 -0.02681,-6.969364 -0.04664,-0.478449 -0.661945,-0.656327 -0.997419,-0.34011 z"
       id="path4451"
       inkscape:connector-curvature="0"
       transform="matrix(0.26458333,0,0,0.26458333,0.52916689,0.53436746)" />
    <path
       style="fill:#008000;stroke-width:0.08838835"
       d="m 44.578095,11.255772 c -1.36094,1.389555 -2.780786,2.736114 -4.10536,4.15218 -0.301617,0.644227 -0.05509,1.417447 -0.134864,2.113035 0.02048,2.287701 -0.04827,4.580509 0.07371,6.864943 0.137296,0.614291 0.951093,0.579451 1.248436,0.109961 1.286977,-1.24918 2.584105,-2.504356 3.808564,-3.80669 0.302419,-0.64421 0.05523,-1.417963 0.135086,-2.113769 -0.01834,-2.32527 0.03545,-4.661752 -0.02764,-6.980067 -0.04671,-0.478797 -0.662564,-0.656418 -0.997937,-0.339593 z"
       id="path4453"
       inkscape:connector-curvature="0"
       transform="matrix(0.26458333,0,0,0.26458333,0.52916689,0.53436746)" />
    <path
       style="fill:#008000;stroke-width:0.08838835"
       d="m 44.578095,21.243656 c -1.36094,1.389554 -2.780786,2.736114 -4.10536,4.152179 -0.301617,0.644227 -0.05509,1.417447 -0.134864,2.113035 0.02048,2.287701 -0.04827,4.58051 0.07371,6.864944 0.137296,0.61429 0.951093,0.57945 1.248436,0.10996 1.286977,-1.24918 2.584105,-2.504356 3.808564,-3.80669 0.302419,-0.64421 0.05523,-1.417963 0.135086,-2.113768 -0.01834,-2.32527 0.03545,-4.661752 -0.02764,-6.980068 -0.04671,-0.478797 -0.662564,-0.656418 -0.997937,-0.339592 z"
       id="path4457"
       inkscape:connector-curvature="0"
       transform="matrix(0.26458333,0,0,0.26458333,0.52916689,0.53436746)" />
    <path
       style="fill:#008000;stroke-width:0.08838835"
       d="m 39.746256,26.200826 c -1.221917,0.986428 -2.263739,2.193613 -3.402856,3.27745 -0.440595,0.464726 -1.129451,0.9033 -0.955223,1.645194 0.01845,2.767204 -0.03524,5.545618 0.0278,8.305893 0.08745,0.66335 0.977257,0.600712 1.247661,0.08932 1.277679,-1.306145 2.614354,-2.569225 3.855637,-3.901904 0.301617,-0.644227 0.05509,-1.417447 0.134863,-2.113035 -0.02048,-2.287701 0.04827,-4.58051 -0.07371,-6.864944 -0.07555,-0.364616 -0.493817,-0.570583 -0.834166,-0.437971 z"
       id="path4459"
       inkscape:connector-curvature="0"
       transform="matrix(0.26458333,0,0,0.26458333,0.52916689,0.53436746)" />
    <path
       style="fill:#008000;stroke-width:0.08838835"
       d="m 34.590212,31.231539 c -1.360941,1.389554 -2.780786,2.736114 -4.10536,4.152179 -0.301617,0.644228 -0.05509,1.417447 -0.134864,2.113035 0.02048,2.287701 -0.04827,4.58051 0.07371,6.864944 0.137296,0.61429 0.951093,0.57945 1.248435,0.10996 1.286978,-1.24918 2.584105,-2.504355 3.808564,-3.80669 0.30242,-0.644209 0.05523,-1.417963 0.135087,-2.113768 -0.01834,-2.32527 0.03545,-4.661752 -0.02764,-6.980068 -0.04671,-0.478797 -0.662564,-0.656418 -0.997937,-0.339592 z"
       id="path4461"
       inkscape:connector-curvature="0"
       transform="matrix(0.26458333,0,0,0.26458333,0.52916689,0.53436746)" />
    <path
       style="fill:#ff0000;stroke-width:0.08838835"
       d="m 25.488974,35.363349 c -1.548464,0.04344 -3.119739,-0.05522 -4.653886,0.07742 -0.688964,0.243481 -0.349341,1.137599 -0.434613,1.691535 0.0045,2.663727 -0.06293,5.338292 -0.01353,7.995299 0.170479,0.787993 1.148401,0.446696 1.722725,0.518654 2.649354,-0.01812 5.309925,0.03597 7.952339,-0.02681 0.785142,-0.173803 0.443541,-1.148357 0.515851,-1.722307 -0.018,-2.678834 0.03587,-5.368835 -0.02682,-8.040727 -0.174409,-0.787207 -1.150676,-0.441008 -1.7254,-0.510015 -1.112225,0.0057 -2.22445,0.0113 -3.336675,0.01695 z"
       id="path4463"
       inkscape:connector-curvature="0"
       transform="matrix(0.26458333,0,0,0.26458333,0.52916689,0.53436746)" />
    <path
       style="fill:#ff0000;stroke-width:0.08838835"
       d="m 20.615704,25.464544 c -0.490887,0.533491 -0.154898,1.337803 -0.253599,1.992364 0.03009,2.5671 -0.06629,5.143967 0.08219,7.705263 0.310267,0.712205 1.204813,0.38016 1.804633,0.477002 2.602941,0.01493 5.21699,0.04998 7.81308,-0.0076 0.785142,-0.173803 0.443541,-1.148357 0.515851,-1.722307 -0.01801,-2.678316 0.03588,-5.3678 -0.02682,-8.039174 -0.173803,-0.785142 -1.148357,-0.44354 -1.722307,-0.515851 -2.648876,0.01786 -5.308852,-0.03573 -7.950786,0.02681 -0.08742,0.02783 -0.174835,0.05567 -0.262252,0.0835 z"
       id="path4465"
       inkscape:connector-curvature="0"
       transform="matrix(0.26458333,0,0,0.26458333,0.52916689,0.53436746)" />
    <path
       style="fill:#ff0000;stroke-width:0.08838835"
       d="m 0.63993702,25.464544 c -0.49088668,0.533491 -0.15489761,1.337803 -0.25359859,1.992364 0.0179968,2.560466 -0.035889,5.132099 0.0268153,7.68562 0.17380349,0.785142 1.14835707,0.443541 1.72230737,0.515851 2.6488757,-0.01786 5.3088517,0.03573 7.9507849,-0.02681 0.785143,-0.173803 0.443541,-1.148357 0.515852,-1.722307 -0.01801,-2.678316 0.03588,-5.3678 -0.02682,-8.039174 -0.173803,-0.785142 -1.1483564,-0.44354 -1.7223065,-0.515851 -2.648876,0.01786 -5.3088519,-0.03573 -7.95078558,0.02681 -0.0874176,0.02783 -0.17483523,0.05567 -0.26225285,0.0835 z"
       id="path4467"
       inkscape:connector-curvature="0"
       transform="matrix(0.26458333,0,0,0.26458333,0.52916689,0.53436746)" />
    <path
       style="fill:#808080;stroke-width:0.08838835"
       d="m 0.63993702,15.476661 c -0.49088668,0.533491 -0.15489761,1.337803 -0.25359859,1.992363 0.0178587,2.531025 -0.0357295,5.073149 0.0268153,7.597232 0.17380349,0.785143 1.14835707,0.443541 1.72230737,0.515852 2.6488757,-0.01786 5.3088517,0.03573 7.9507849,-0.02682 0.785143,-0.173803 0.443541,-1.148357 0.515852,-1.722307 -0.01786,-2.648876 0.03573,-5.308852 -0.02682,-7.950785 -0.173803,-0.785143 -1.1483564,-0.443541 -1.7223065,-0.515852 -2.648876,0.01786 -5.3088519,-0.03573 -7.95078558,0.02682 -0.0874176,0.02783 -0.17483523,0.05566 -0.26225285,0.0835 z"
       id="path4469"
       inkscape:connector-curvature="0"
       transform="matrix(0.26458333,0,0,0.26458333,0.52916689,0.53436746)" />
    <path
       style="fill:#808080;stroke-width:0.08838835"
       d="m 10.62782,15.476661 c -0.490886,0.533491 -0.154897,1.337803 -0.253598,1.992363 0.01786,2.531025 -0.03573,5.073149 0.02682,7.597232 0.173803,0.785143 1.148357,0.443541 1.722307,0.515852 2.648876,-0.01786 5.308852,0.03573 7.950786,-0.02682 0.785142,-0.173803 0.44354,-1.148357 0.515851,-1.722307 -0.01786,-2.648876 0.03573,-5.308852 -0.02682,-7.950785 -0.173804,-0.785143 -1.148357,-0.443541 -1.722307,-0.515852 -2.648876,0.01786 -5.308852,-0.03573 -7.950786,0.02682 -0.08742,0.02783 -0.174835,0.05566 -0.262253,0.0835 z"
       id="path4471"
       inkscape:connector-curvature="0"
       transform="matrix(0.26458333,0,0,0.26458333,0.52916689,0.53436746)" />
    <path
       style="fill:#ff0000;stroke-width:0.08838835"
       d="m 10.62782,25.464544 c -0.490886,0.533491 -0.154897,1.337803 -0.253598,1.992364 0.03009,2.5671 -0.06629,5.143967 0.0822,7.705263 0.310267,0.712205 1.204813,0.38016 1.804633,0.477002 2.60294,0.01493 5.216989,0.04998 7.81308,-0.0076 0.785142,-0.173803 0.44354,-1.148357 0.515851,-1.722307 -0.01801,-2.678316 0.03588,-5.3678 -0.02682,-8.039174 -0.173804,-0.785142 -1.148357,-0.44354 -1.722307,-0.515851 -2.648876,0.01786 -5.308852,-0.03573 -7.950786,0.02681 -0.08742,0.02783 -0.174835,0.05567 -0.262253,0.0835 z"
       id="path4473"
       inkscape:connector-curvature="0"
       transform="matrix(0.26458333,0,0,0.26458333,0.52916689,0.53436746)" />
    <path
       style="fill:#ff0000;stroke-width:0.08838835"
       d="m 0.63993702,35.452428 c -0.49088668,0.53349 -0.15489761,1.337802 -0.25359859,1.992363 0.0179968,2.560466 -0.035889,5.132099 0.0268153,7.68562 0.17380349,0.785142 1.14835707,0.443541 1.72230737,0.515851 2.6488757,-0.01786 5.3088517,0.03573 7.9507849,-0.02681 0.785143,-0.173803 0.443541,-1.148357 0.515852,-1.722307 -0.01801,-2.678316 0.03588,-5.3678 -0.02682,-8.039174 -0.173803,-0.785142 -1.1483564,-0.44354 -1.7223065,-0.515851 -2.648876,0.01786 -5.3088519,-0.03573 -7.95078558,0.02681 -0.0874176,0.02783 -0.17483523,0.05566 -0.26225285,0.0835 z"
       id="path4479"
       inkscape:connector-curvature="0"
       transform="matrix(0.26458333,0,0,0.26458333,0.52916689,0.53436746)" />
    <path
       style="fill:#ff0000;stroke-width:0.08838835"
       d="m 15.501091,35.363349 c -1.548465,0.04344 -3.119739,-0.05522 -4.653886,0.07742 -0.688964,0.243481 -0.349341,1.137599 -0.434613,1.691535 0.0045,2.663727 -0.06293,5.338292 -0.01353,7.995299 0.17048,0.787993 1.148402,0.446696 1.722726,0.518654 2.649353,-0.01812 5.309924,0.03597 7.952339,-0.02681 0.785142,-0.173803 0.44354,-1.148357 0.515851,-1.722307 -0.018,-2.678834 0.03587,-5.368835 -0.02682,-8.040727 -0.174409,-0.787207 -1.150677,-0.441008 -1.7254,-0.510015 -1.112225,0.0057 -2.22445,0.0113 -3.336675,0.01695 z"
       id="path4481"
       inkscape:connector-curvature="0"
       transform="matrix(0.26458333,0,0,0.26458333,0.52916689,0.53436746)" />
    <g
       transform="translate(-0.66145805,3.9687427)"
       id="layer1-6"
       inkscape:label="Layer 1">
      <path
         inkscape:connector-curvature="0"
         id="path3749"
         d="M 1.3229166,0.66666665 V 8.6041665"
         style="fill:none;stroke:#000000;stroke-width:0.26458332px;stroke-linecap:butt;stroke-linejoin:miter;stroke-opacity:1" />
      <path
         inkscape:connector-curvature="0"
         id="path3751"
         d="M 3.96875,0.66666665 V 8.6041665"
         style="fill:none;stroke:#000000;stroke-width:0.26458332px;stroke-linecap:butt;stroke-linejoin:miter;stroke-opacity:1" />
      <path
         inkscape:connector-curvature="0"
         id="path3753"
         d="M 6.6145832,8.6041665 V 0.66666665"
         style="fill:none;stroke:#000000;stroke-width:0.26458332px;stroke-linecap:butt;stroke-linejoin:miter;stroke-opacity:1" />
      <path
         inkscape:connector-curvature="0"
         id="path3757"
         d="m 1.3229166,0.66666665 h 7.9375"
         style="fill:none;stroke:#000000;stroke-width:0.26458332px;stroke-linecap:butt;stroke-linejoin:miter;stroke-opacity:1" />
      <path
         inkscape:connector-curvature="0"
         id="path3759"
         d="m 1.3229166,3.3124999 h 7.9375"
         style="fill:none;stroke:#000000;stroke-width:0.26458332px;stroke-linecap:butt;stroke-linejoin:miter;stroke-opacity:1" />
      <path
         inkscape:connector-curvature="0"
         id="path3761"
         d="m 9.2604166,5.9583332 h -7.9375"
         style="fill:none;stroke:#000000;stroke-width:0.26458332px;stroke-linecap:butt;stroke-linejoin:miter;stroke-opacity:1" />
      <circle
         style="stroke-width:0.26458332"
         r="0.13229166"
         cy="0.66665924"
         cx="1.3229166"
         id="path3763" />
      <circle
         style="stroke-width:0.26458332"
         r="0.13229166"
         cy="8.6041594"
         cx="1.3229166"
         id="path3765" />
      <circle
         style="stroke-width:0.26458332"
         r="0.13229166"
         cy="0.66665924"
         cx="9.260417"
         id="path3767" />
      <path
         inkscape:connector-curvature="0"
         id="path3769"
         d="M 1.3229167,8.6041594 H 9.2604168"
         style="fill:none;stroke:#000000;stroke-width:0.26458332px;stroke-linecap:butt;stroke-linejoin:miter;stroke-opacity:1" />
      <path
         inkscape:connector-curvature="0"
         id="path3771"
         d="M 9.2604168,8.6041594 V 0.66665919"
         style="fill:none;stroke:#000000;stroke-width:0.26458332px;stroke-linecap:butt;stroke-linejoin:miter;stroke-opacity:1" />
      <circle
         style="stroke-width:0.26458332"
         r="0.13229166"
         cy="8.6041594"
         cx="9.260417"
         id="path3773" />
    </g>
    <path
       style="fill:none;stroke:#000000;stroke-width:0.26458332px;stroke-linecap:butt;stroke-linejoin:miter;stroke-opacity:1"
       d="M 8.5989587,12.57291 12.567709,8.6041592"
       id="path4312"
       inkscape:connector-curvature="0" />
    <path
       style="fill:none;stroke:#000000;stroke-width:0.26458332px;stroke-linecap:butt;stroke-linejoin:miter;stroke-opacity:1"
       d="M 8.5989587,4.6354092 12.567709,0.66665916"
       id="path4314"
       inkscape:connector-curvature="0" />
    <path
       style="fill:none;stroke:#000000;stroke-width:0.26458332px;stroke-linecap:butt;stroke-linejoin:miter;stroke-opacity:1"
       d="M 12.567709,8.6041592 V 0.66665916"
       id="path4316"
       inkscape:connector-curvature="0" />
    <path
       style="fill:none;stroke:#000000;stroke-width:0.26458332px;stroke-linecap:butt;stroke-linejoin:miter;stroke-opacity:1"
       d="M 0.66145855,4.6354092 4.6302088,0.66665916"
       id="path4320"
       inkscape:connector-curvature="0" />
    <path
       style="fill:none;stroke:#000000;stroke-width:0.26458332px;stroke-linecap:butt;stroke-linejoin:miter;stroke-opacity:1"
       d="M 4.6302088,0.66665916 H 12.567709"
       id="path4322"
       inkscape:connector-curvature="0" />
    <path
       style="fill:none;stroke:#000000;stroke-width:0.26458332px;stroke-linecap:butt;stroke-linejoin:miter;stroke-opacity:1"
       d="M 8.5989587,7.2812425 12.567709,3.3124926"
       id="path4324"
       inkscape:connector-curvature="0" />
    <path
       style="fill:none;stroke:#000000;stroke-width:0.26458332px;stroke-linecap:butt;stroke-linejoin:miter;stroke-opacity:1"
       d="M 8.5989587,9.9270761 12.567709,5.9583259"
       id="path4326"
       inkscape:connector-curvature="0" />
    <path
       style="fill:none;stroke:#000000;stroke-width:0.26458332px;stroke-linecap:butt;stroke-linejoin:miter;stroke-opacity:1"
       d="M 9.9218749,11.249993 V 3.3124926"
       id="path4328"
       inkscape:connector-curvature="0" />
    <path
       style="fill:none;stroke:#000000;stroke-width:0.26458332px;stroke-linecap:butt;stroke-linejoin:miter;stroke-opacity:1"
       d="M 11.244792,1.9895758 V 9.9270761"
       id="path4330"
       inkscape:connector-curvature="0" />
    <path
       style="fill:none;stroke:#000000;stroke-width:0.26458332px;stroke-linecap:butt;stroke-linejoin:miter;stroke-opacity:1"
       d="M 1.9843752,3.3124926 H 9.9218749"
       id="path4332"
       inkscape:connector-curvature="0" />
    <path
       style="fill:none;stroke:#000000;stroke-width:0.26458332px;stroke-linecap:butt;stroke-linejoin:miter;stroke-opacity:1"
       d="M 11.244792,1.9895758 H 3.3072919"
       id="path4334"
       inkscape:connector-curvature="0" />
    <path
       style="fill:none;stroke:#000000;stroke-width:0.26458332px;stroke-linecap:butt;stroke-linejoin:miter;stroke-opacity:1"
       d="M 5.9531254,4.6354092 9.9218749,0.66665916"
       id="path4336"
       inkscape:connector-curvature="0" />
    <path
       style="fill:none;stroke:#000000;stroke-width:0.26458332px;stroke-linecap:butt;stroke-linejoin:miter;stroke-opacity:1"
       d="M 3.3072919,4.6354092 7.2760421,0.66665916 v 0"
       id="path4340"
       inkscape:connector-curvature="0" />
    <circle
       id="path4344"
       cx="4.6302085"
       cy="0.66665912"
       r="0.13229166"
       style="stroke-width:0.26458332" />
    <circle
       id="path4346"
       cx="12.567708"
       cy="0.66665912"
       r="0.13229166"
       style="stroke-width:0.26458332" />
    <circle
       id="path4348"
       cx="12.567708"
       cy="8.6041594"
       r="0.13229166"
       style="stroke-width:0.26458332" />
  </g>
</svg>
