<?xml version="1.0" encoding="UTF-8" standalone="no"?>
<!-- Created with Inkscape (http://www.inkscape.org/) -->

<svg
   xmlns:dc="http://purl.org/dc/elements/1.1/"
   xmlns:cc="http://creativecommons.org/ns#"
   xmlns:rdf="http://www.w3.org/1999/02/22-rdf-syntax-ns#"
   xmlns:svg="http://www.w3.org/2000/svg"
   xmlns="http://www.w3.org/2000/svg"
   xmlns:sodipodi="http://sodipodi.sourceforge.net/DTD/sodipodi-0.dtd"
   xmlns:inkscape="http://www.inkscape.org/namespaces/inkscape"
   width="12.170834mm"
   height="12.170826mm"
   viewBox="0 0 12.170834 12.170826"
   version="1.1"
   id="svg4219"
   sodipodi:docname="second_layer_case_2.svg"
   inkscape:version="0.92.4 5da689c313, 2019-01-14">
  <defs
     id="defs4213" />
  <sodipodi:namedview
     id="base"
     pagecolor="#ffffff"
     bordercolor="#666666"
     borderopacity="1.0"
     inkscape:pageopacity="0.0"
     inkscape:pageshadow="2"
     inkscape:zoom="8"
     inkscape:cx="42.290775"
     inkscape:cy="26.321836"
     inkscape:document-units="mm"
     inkscape:current-layer="layer1"
     showgrid="true"
     inkscape:window-width="1820"
     inkscape:window-height="955"
     inkscape:window-x="50"
     inkscape:window-y="75"
     inkscape:window-maximized="1">
    <inkscape:grid
       type="xygrid"
       id="grid4221"
       spacingx="0.13229167"
       spacingy="0.13229167"
       originx="-0.52916692"
       originy="-284.2948" />
  </sodipodi:namedview>
  <metadata
     id="metadata4216">
    <rdf:RDF>
      <cc:Work
         rdf:about="">
        <dc:format>image/svg+xml</dc:format>
        <dc:type
           rdf:resource="http://purl.org/dc/dcmitype/StillImage" />
        <dc:title></dc:title>
      </cc:Work>
    </rdf:RDF>
  </metadata>
  <g
     inkscape:label="Layer 1"
     inkscape:groupmode="layer"
     id="layer1"
     transform="translate(-0.52916689,-0.53436746)">
    <path
       style="fill:#808080;stroke-width:0.00413411"
       d="m 11.225064,3.2889704 c 0.07262,0.018346 0.114003,0.086061 0.167208,0.1330598 0.323961,0.3251009 0.650469,0.647723 0.971858,0.9753505 0.05732,0.063103 0.05136,0.1705496 -0.01485,0.225081 -0.04812,0.045422 -0.117209,0.040527 -0.178397,0.04041 -0.732257,0.00301 -1.464595,0.00217 -2.196812,0.00153 C 9.9118567,4.664617 9.8641648,4.6207874 9.8249985,4.5774574 9.4837199,4.2357655 9.1415118,3.8949028 8.8008197,3.552687 8.7374949,3.4890296 8.7452059,3.3725071 8.8182372,3.3195989 c 0.059629,-0.050261 0.1417551,-0.030871 0.2131635,-0.034687 0.7206937,3.175e-4 1.4414583,-6.35e-4 2.1621073,4.498e-4 0.01052,0.00119 0.02104,0.00241 0.03156,0.00359 z"
       id="path4423"
       inkscape:connector-curvature="0" />
    <path
       style="fill:#808080;stroke-width:0.00826823"
       d="m 9.9298039,1.9738637 c 0.097951,0.057307 0.1647551,0.154258 0.2488821,0.2291337 0.289617,0.2910525 0.582307,0.5795445 0.870006,0.8721944 0.08015,0.08309 0.03196,0.2363468 -0.0812,0.2588885 -0.162271,0.012269 -0.327208,0.00185 -0.490502,0.0053 -0.6117593,-0.00101 -1.2238784,0.00198 -1.835412,-0.00148 C 8.5318308,3.3269974 8.4753666,3.2171895 8.3971531,3.1525738 8.0899978,2.8439806 7.7797694,2.5379483 7.4745304,2.2277582 c -0.08015,-0.08309 -0.031962,-0.2363468 0.081197,-0.2588885 0.1622714,-0.01227 0.3272087,-0.00184 0.4905029,-0.0053 0.611759,9.922e-4 1.2238781,-0.00198 1.8354119,0.00149 0.016055,0.00294 0.032108,0.00588 0.048162,0.00881 z"
       id="path4425"
       inkscape:connector-curvature="0" />
    <path
       style="fill:#808080;stroke-width:0.00826823"
       d="m 8.6068873,0.65094708 c 0.097951,0.0573065 0.164755,0.15425798 0.2488821,0.22913366 0.2896169,0.29105246 0.5823064,0.57954456 0.8700064,0.87219436 0.08015,0.08309 0.031962,0.236347 -0.081197,0.2588886 -0.1622714,0.01227 -0.3272086,0.00184 -0.4905029,0.0053 C 8.542317,2.0154722 7.930198,2.0184488 7.3186644,2.0149748 7.2089142,2.0040713 7.15245,1.8942634 7.0742365,1.8296477 6.7670812,1.5210546 6.4568527,1.2150223 6.151614,0.90483225 6.071463,0.82174255 6.119652,0.66848537 6.232811,0.64594365 c 0.1622716,-0.0122699 0.3272086,-0.001841 0.4905028,-0.005301 0.611759,9.9219e-4 1.2238781,-0.001984 1.8354119,0.001489 0.016055,0.002938 0.032108,0.005876 0.048162,0.008814 z"
       id="path4427"
       inkscape:connector-curvature="0" />
    <path
       style="fill:#808080;stroke-width:0.00826823"
       d="M 5.961054,0.65094708 C 6.0590051,0.7082536 6.125809,0.80520506 6.2099361,0.88008074 6.499553,1.1711332 6.7922425,1.4596253 7.0799425,1.7522751 c 0.08015,0.08309 0.031962,0.236347 -0.081197,0.2588886 -0.1622714,0.01227 -0.3272086,0.00184 -0.4905029,0.0053 -0.611759,-9.922e-4 -1.223878,0.00198 -1.8354116,-0.00149 C 4.5630809,2.0040713 4.5066167,1.8942634 4.4284032,1.8296477 4.1212479,1.5210546 3.8110194,1.2150223 3.5057807,0.90483225 c -0.08015,-0.0830897 -0.031962,-0.23634688 0.081197,-0.2588886 0.1622716,-0.0122699 0.3272086,-0.001841 0.4905028,-0.005301 0.611759,9.9219e-4 1.2238781,-0.001984 1.8354119,0.001489 0.016055,0.002938 0.032108,0.005876 0.048162,0.008814 z"
       id="path4429"
       inkscape:connector-curvature="0" />
    <path
       style="fill:#808080;stroke-width:0.00826823"
       d="m 7.2839706,1.9738637 c 0.097951,0.057307 0.164755,0.154258 0.2488822,0.2291337 0.2896169,0.2910525 0.5823064,0.5795445 0.8700063,0.8721944 0.08015,0.08309 0.031962,0.2363468 -0.081197,0.2588885 -0.1622713,0.012269 -0.3272086,0.00185 -0.4905028,0.0053 -0.611759,-0.00101 -1.2238781,0.00198 -1.8354117,-0.00148 C 5.8859975,3.3269974 5.8295333,3.2171895 5.7513198,3.1525738 5.4441645,2.8439806 5.1339361,2.5379483 4.8286974,2.2277582 4.7485469,2.1446686 4.7967352,1.9914114 4.909894,1.9688697 c 0.1622716,-0.01227 0.3272087,-0.00184 0.4905029,-0.0053 0.611759,9.922e-4 1.2238781,-0.00198 1.8354119,0.00149 0.016055,0.00294 0.032108,0.00588 0.048162,0.00881 z"
       id="path4431"
       inkscape:connector-curvature="0" />
    <path
       style="fill:#0000ff;stroke-width:0.00826823"
       d="m 8.6068873,3.2967804 c 0.097951,0.057306 0.164755,0.1542579 0.2488821,0.2291337 0.2896169,0.2910525 0.5823064,0.5795444 0.8700064,0.8721944 0.08015,0.083089 0.031962,0.2363468 -0.081197,0.2588885 C 9.4823074,4.669266 9.3173702,4.658847 9.1540759,4.662297 8.5423169,4.661287 7.9301979,4.664277 7.3186643,4.660817 7.2089142,4.6499141 7.15245,4.5401062 7.0742365,4.4754904 6.7670812,4.1668971 6.4568527,3.8608649 6.151614,3.5506748 6.0714635,3.4675854 6.1196518,3.3143281 6.2328107,3.2917864 c 0.1622716,-0.012269 0.3272086,-0.00185 0.4905028,-0.0053 0.611759,0.00101 1.2238781,-0.00198 1.8354119,0.00148 0.016055,0.00294 0.032108,0.00588 0.048162,0.00881 z"
       id="path4433"
       inkscape:connector-curvature="0" />
    <path
       style="fill:#808080;stroke-width:0.00826823"
       d="m 5.961054,3.2967804 c 0.097951,0.057306 0.164755,0.1542579 0.2488821,0.2291337 0.2896169,0.2910525 0.5823064,0.5795444 0.8700064,0.8721944 0.08015,0.083089 0.031962,0.2363468 -0.081197,0.2588885 C 6.8364741,4.669266 6.6715369,4.658847 6.5082426,4.662297 5.8964836,4.661287 5.2843646,4.664277 4.672831,4.660817 4.5630809,4.6499141 4.5066167,4.5401062 4.4284032,4.4754904 4.1212479,4.1668971 3.8110194,3.8608649 3.5057807,3.5506748 c -0.08015,-0.083089 -0.031962,-0.2363467 0.081197,-0.2588884 0.1622716,-0.012269 0.3272086,-0.00185 0.4905028,-0.0053 0.611759,0.00101 1.2238781,-0.00198 1.8354119,0.00148 0.016055,0.00294 0.032108,0.00588 0.048162,0.00881 z"
       id="path4435"
       inkscape:connector-curvature="0" />
    <path
       style="fill:#808080;stroke-width:0.00826823"
       d="m 7.205374,4.6196971 c 0.08587,0.03358 0.1129999,0.1301818 0.1024486,0.2145863 -0.00101,0.7743674 0.00198,1.5490949 -0.00148,2.3232372 -0.00315,0.099587 -0.1047806,0.1646576 -0.1985963,0.1506106 -0.7853915,-0.00101 -1.5711437,0.00198 -2.35631,-0.00148 C 4.651848,7.3035036 4.5867769,7.201869 4.6008239,7.1080533 c 0.00101,-0.7826357 -0.00198,-1.5656314 0.00148,-2.3480419 0.00315,-0.099587 0.1047806,-0.1646576 0.1985963,-0.1506106 0.7853915,0.00101 1.5711437,-0.00198 2.35631,0.00148 0.016055,0.00294 0.032108,0.00588 0.048162,0.00881 z"
       id="path4437"
       inkscape:connector-curvature="0" />
    <path
       style="fill:#808080;stroke-width:0.02338609"
       d="m 4.6616323,1.9866066 c 0.36995,0.3693298 0.7486478,0.7346942 1.1063751,1.1138875 0.1077293,0.1403584 -0.07038,0.2950746 -0.216562,0.2502245 -0.7320235,-0.00477 -1.4670013,0.00949 -2.1971897,-0.0071 C 3.1772138,3.2795915 3.0787308,3.0885996 2.9336513,2.973332 2.6821371,2.7084101 2.3999174,2.4659349 2.1677469,2.186872 2.0828392,2.0464666 2.2604883,1.9181281 2.3950549,1.9574183 c 0.7320238,0.00477 1.4670013,-0.00948 2.1971897,0.00709 0.02313,0.00736 0.046258,0.014728 0.069388,0.022092 z"
       id="path4439"
       inkscape:connector-curvature="0" />
    <path
       style="fill:#808080;stroke-width:0.02338609"
       d="M 3.3286255,0.65359984 C 3.6985757,1.0229297 4.0772733,1.3882941 4.4350008,1.7674874 4.5427299,1.9078457 4.3646214,2.062562 4.2184386,2.0177119 3.4864151,2.0129464 2.7514373,2.0271962 2.0212489,2.010617 1.844207,1.946586 1.7457243,1.7555942 1.6006445,1.6403266 1.3491303,1.3754046 1.0669106,1.1329295 0.83474006,0.85386659 0.74983236,0.71346115 0.92748154,0.5851227 1.0620481,0.62441291 c 0.7320238,0.004766 1.4670013,-0.009484 2.1971899,0.007095 0.02313,0.007364 0.046258,0.014728 0.069387,0.0220919 z"
       id="path4441"
       inkscape:connector-curvature="0" />
    <path
       style="fill:#808080;stroke-width:0.02338609"
       d="M 0.90537984,0.86982975 C 1.2654619,1.2374827 1.6411295,1.5937599 1.9915897,1.9684272 2.0713925,2.138879 2.0061656,2.3434601 2.0272724,2.5275011 2.0218538,3.1327886 2.0400439,3.7394275 2.00777,4.3438507 1.9714438,4.5063816 1.7561266,4.4971635 1.6774546,4.3729445 1.336942,4.0424321 0.99374353,3.7103337 0.66977209,3.3657578 0.58975706,3.1953106 0.65515915,2.9905883 0.63403058,2.8064898 c 0.004852,-0.6152277 -0.009379,-1.2334219 0.007313,-1.84680951 0.0123587,-0.1266817 0.17530339,-0.17367728 0.26403749,-0.0898505 z"
       id="path4443"
       inkscape:connector-curvature="0" />
    <path
       style="fill:#808080;stroke-width:0.02338609"
       d="m 2.2145892,2.1796788 c 0.3601924,0.3667131 0.7359579,0.7220309 1.0865107,1.0957976 0.080019,0.170424 0.014602,0.3751435 0.035737,0.5592247 -0.00486,0.6152123 0.00938,1.2333911 -0.00731,1.8467636 C 3.3063862,5.856976 3.0709581,5.8404031 2.9994138,5.7050973 2.6613612,5.3595128 2.3076993,5.0253229 1.9792765,4.6727182 1.8994737,4.5022665 1.9647006,4.2976854 1.943594,4.1136444 1.9483221,3.4993523 1.9341351,2.882122 1.9506875,2.2696669 1.9630276,2.1430771 2.1258271,2.0960135 2.2145879,2.1796793 Z"
       id="path4445"
       inkscape:connector-curvature="0" />
    <path
       style="fill:#808080;stroke-width:0.02338609"
       d="m 3.547596,3.5126854 c 0.3601924,0.3667133 0.7359579,0.722031 1.0865107,1.0957976 0.080016,0.1704242 0.014642,0.3751437 0.035793,0.5592246 -0.00631,0.6070714 0.014475,1.215853 -0.021011,1.8218764 C 4.609575,7.1499035 4.3971477,7.1385544 4.3189022,7.0154258 3.9783435,6.6843011 3.6358488,6.3508242 3.3122013,6.0053091 3.2325405,5.8348561 3.2976889,5.6303421 3.2766013,5.4463313 3.2813294,4.8321458 3.2671425,4.2150219 3.2836948,3.6026734 3.296035,3.4760835 3.4588344,3.42902 3.547596,3.5126854 Z"
       id="path4447"
       inkscape:connector-curvature="0" />
    <path
       style="fill:#808080;stroke-width:0.02338609"
       d="m 3.547596,6.155313 c 0.3601924,0.3667131 0.7359579,0.7220308 1.0865107,1.0957976 0.080016,0.1704239 0.014642,0.3751434 0.035793,0.5592246 -0.00542,0.6060945 0.012774,1.2135398 -0.019502,1.8187704 C 4.6140711,9.7916365 4.398754,9.7824184 4.3200822,9.6581992 3.9795693,9.327687 3.6363711,8.9955884 3.3123997,8.6510125 3.2323871,8.4805653 3.2977471,8.2758431 3.2766021,8.0917447 3.2813249,7.4766295 3.2671512,6.8585787 3.2836956,6.2453005 3.2960357,6.1187108 3.4588352,6.0716473 3.547596,6.155313 Z"
       id="path4449"
       inkscape:connector-curvature="0" />
    <path
       style="fill:#0000ff;stroke-width:0.02338609"
       d="m 2.2145892,4.8223062 c 0.3601924,0.3667131 0.7359579,0.722031 1.0865107,1.0957976 0.080019,0.1704242 0.014602,0.3751437 0.035737,0.5592246 -0.00486,0.6152124 0.00938,1.2333912 -0.00731,1.8467639 C 3.3063862,8.4996036 3.0709581,8.4830307 2.9994138,8.3477249 2.6613612,8.0021404 2.3076993,7.6679505 1.9792765,7.3153458 1.8994737,7.1448941 1.9647006,6.9403133 1.943594,6.756272 1.9483221,6.1419802 1.9341351,5.5247496 1.9506875,4.9122945 1.9630276,4.7857048 2.1258271,4.7386413 2.2145879,4.822307 Z"
       id="path4451"
       inkscape:connector-curvature="0" />
    <path
       style="fill:#808080;stroke-width:0.02338609"
       d="M 0.90537984,3.5124571 C 1.2654619,3.8801102 1.6411295,4.2363873 1.9915897,4.6110547 2.0713925,4.7815064 2.0061656,4.9860876 2.0272724,5.1701285 2.0218538,5.7754161 2.0400439,6.3820549 2.00777,6.986478 1.9714438,7.1490092 1.7561266,7.1397911 1.6774546,7.0155719 1.336942,6.6850597 0.99374353,6.352961 0.66977209,6.0083852 0.58975706,5.8379379 0.65515915,5.6332158 0.63403058,5.4491171 0.63888304,4.8338894 0.62465111,4.2156952 0.64134367,3.6023077 0.65370236,3.475626 0.81664706,3.4286305 0.90538116,3.5124571 Z"
       id="path4453"
       inkscape:connector-curvature="0" />
    <path
       style="fill:#0000ff;stroke-width:0.02338609"
       d="M 0.90537984,6.1550847 C 1.2654619,6.5227375 1.6411295,6.8790149 1.9915897,7.2536821 2.0713925,7.4241338 2.0061656,7.6287149 2.0272724,7.8127559 2.0218538,8.4180434 2.0400439,9.0246825 2.00777,9.6291056 1.9714438,9.7916365 1.7561266,9.7824184 1.6774546,9.6581992 1.336942,9.327687 0.99374353,8.9955884 0.66977209,8.6510125 0.58975706,8.4805653 0.65515915,8.2758431 0.63403058,8.0917447 0.63888304,7.476517 0.62465111,6.8583229 0.64134367,6.2449351 0.65370236,6.1182534 0.81664706,6.0712578 0.90538116,6.1550847 Z"
       id="path4457"
       inkscape:connector-curvature="0" />
    <path
       style="fill:#0000ff;stroke-width:0.02338609"
       d="m 2.1838039,7.4666693 c 0.3232989,0.2609924 0.5989476,0.5803934 0.900339,0.8671586 0.1165741,0.1229587 0.2988339,0.2389981 0.252736,0.4352909 -0.00488,0.732156 0.00932,1.4672782 -0.00736,2.1976012 C 3.3063809,11.142231 3.070953,11.125658 2.9994086,10.99035 2.6613607,10.644768 2.3076987,10.310578 1.979276,9.9579735 1.8994731,9.7875217 1.9647001,9.5829406 1.9435934,9.3988996 1.9490121,8.7936121 1.930822,8.186973 1.9630959,7.5825499 1.9830852,7.4860786 2.0937516,7.4315831 2.1838023,7.46667 Z"
       id="path4459"
       inkscape:connector-curvature="0" />
    <path
       style="fill:#0000ff;stroke-width:0.02338609"
       d="M 3.5480072,8.797712 C 3.9080895,9.1653649 4.2837568,9.5216422 4.634217,9.8963094 4.71402,10.066761 4.648793,10.271342 4.6699,10.455383 4.66448,11.060671 4.682671,11.66731 4.650398,12.271733 4.614072,12.434264 4.3987547,12.425046 4.3200829,12.300823 3.9795693,11.970314 3.6363711,11.638216 3.3123997,11.29364 3.2323844,11.123193 3.2977868,10.91847 3.2766579,10.734372 3.2815104,10.119144 3.2672784,9.5009502 3.283971,8.8875624 3.2963297,8.7608807 3.4592744,8.7138852 3.5480085,8.797712 Z"
       id="path4461"
       inkscape:connector-curvature="0" />
    <path
       style="fill:#ff0000;stroke-width:0.02338609"
       d="m 5.956043,9.8909201 c 0.4096978,0.011493 0.825431,-0.01461 1.2313407,0.020484 0.1822884,0.064421 0.09243,0.3009899 0.1149914,0.4475519 -0.00119,0.704778 0.01665,1.412423 0.00358,2.115423 -0.045106,0.20849 -0.3038478,0.118188 -0.4558044,0.137227 -0.7009749,-0.0048 -1.4049176,0.0095 -2.1040563,-0.0071 -0.2077355,-0.04599 -0.1173535,-0.303836 -0.1364856,-0.455694 0.00476,-0.708775 -0.00949,-1.420504 0.0071,-2.127442 0.046146,-0.2082822 0.3044496,-0.1166838 0.456512,-0.1349419 0.2942762,0.00151 0.5885524,0.00299 0.8828286,0.00448 z"
       id="path4463"
       inkscape:connector-curvature="0" />
    <path
       style="fill:#808080;stroke-width:0.02338609"
       d="M 7.245429,7.2718613 C 7.3753096,7.4130141 7.286413,7.6258217 7.312527,7.7990076 7.304567,8.4782195 7.330066,9.1600155 7.290781,9.8376918 7.2086895,10.026129 6.9720076,9.9382758 6.8133052,9.9638985 6.1246104,9.9678488 5.4329766,9.9771224 4.7460945,9.9618877 4.538359,9.9159023 4.6287409,9.6580516 4.6096089,9.506194 4.614374,8.7975562 4.6001157,8.0859636 4.616705,7.3791625 4.6626904,7.1714271 4.9205411,7.2618093 5.0723987,7.242677 c 0.7008485,0.00473 1.4046338,-0.00945 2.1036455,0.00709 0.02313,0.00736 0.046258,0.014729 0.069388,0.022093 z"
       id="path4465"
       inkscape:connector-curvature="0" />
    <path
       style="fill:#808080;stroke-width:0.02338609"
       d="m 12.530684,7.2718613 c 0.12988,0.1411528 0.04098,0.3539604 0.0671,0.5271463 -0.0048,0.6774566 0.0095,1.3578679 -0.0071,2.0334869 -0.04599,0.2077355 -0.303836,0.1173536 -0.455694,0.1364856 -0.700848,-0.00473 -1.404633,0.00945 -2.103645,-0.00709 C 9.8236124,9.9159013 9.9139946,9.6580505 9.8948623,9.5061929 9.8996274,8.7975552 9.885369,8.0859625 9.9019584,7.3791615 9.9479438,7.171426 10.205794,7.2618082 10.357652,7.2426759 c 0.700848,0.00473 1.404634,-0.00945 2.103645,0.00709 0.02313,0.00736 0.04626,0.014729 0.06939,0.022093 z"
       id="path4467"
       inkscape:connector-curvature="0" />
    <path
       style="fill:#808080;stroke-width:0.02338609"
       d="m 12.530684,4.629234 c 0.12988,0.1411528 0.04098,0.3539603 0.0671,0.527146 -0.0047,0.669667 0.0095,1.3422707 -0.0071,2.0101009 -0.04599,0.2077358 -0.303836,0.1173536 -0.455694,0.1364859 -0.700848,-0.00473 -1.404633,0.00945 -2.103645,-0.0071 C 9.8236124,7.2498853 9.9139946,6.9920345 9.8948623,6.8401769 c 0.00473,-0.7008484 -0.00945,-1.4046337 0.0071,-2.1036451 0.045985,-0.2077358 0.3038357,-0.1173536 0.4556937,-0.1364859 0.700848,0.00473 1.404634,-0.00945 2.103645,0.0071 0.02313,0.00736 0.04626,0.014727 0.06939,0.022093 z"
       id="path4469"
       inkscape:connector-curvature="0" />
    <path
       style="fill:#ff0000;stroke-width:0.02338609"
       d="m 9.8880567,4.629234 c 0.1298803,0.1411528 0.040983,0.3539603 0.067098,0.527146 -0.00473,0.669667 0.00945,1.3422707 -0.0071,2.0101009 C 9.902073,7.3742167 9.6442222,7.2838345 9.4923646,7.3029668 8.7915162,7.2982413 8.0877309,7.3124203 7.3887192,7.2958707 7.1809837,7.2498853 7.2713659,6.9920345 7.2522336,6.8401769 7.2569591,6.1393285 7.24278,5.4355432 7.2593297,4.7365318 7.3053154,4.528796 7.5631658,4.6191782 7.7150234,4.6000459 c 0.7008485,0.00473 1.4046338,-0.00945 2.1036455,0.0071 0.02313,0.00736 0.046258,0.014727 0.069388,0.022093 z"
       id="path4471"
       inkscape:connector-curvature="0" />
    <path
       style="fill:#ff0000;stroke-width:0.02338609"
       d="m 9.8880567,7.2718613 c 0.1298803,0.1411528 0.040983,0.3539604 0.067098,0.5271463 -0.00796,0.6792119 0.017539,1.3610079 -0.021749,2.0386842 C 9.8513142,10.026129 9.6146323,9.9382758 9.4559299,9.9638985 8.7672354,9.9678488 8.0756016,9.9771224 7.3887192,9.9618877 7.1809837,9.9159023 7.2713659,9.6580516 7.2522336,9.506194 c 0.00477,-0.7086378 -0.00949,-1.4202304 0.0071,-2.1270315 0.045986,-0.2077354 0.3038361,-0.1173532 0.4556937,-0.1364855 0.7008485,0.00473 1.4046338,-0.00945 2.1036455,0.00709 0.02313,0.00736 0.046258,0.014729 0.069388,0.022093 z"
       id="path4473"
       inkscape:connector-curvature="0" />
    <path
       style="fill:#ff0000;stroke-width:0.02338609"
       d="m 12.530684,9.9144889 c 0.12988,0.1411521 0.04098,0.3539601 0.0671,0.5271461 -0.0048,0.677457 0.0095,1.357868 -0.0071,2.033487 -0.04599,0.207735 -0.303836,0.117353 -0.455694,0.136485 -0.700848,-0.0047 -1.404633,0.0095 -2.103645,-0.0071 -0.2077356,-0.04598 -0.1173534,-0.303836 -0.1364857,-0.455694 0.00477,-0.708638 -0.00949,-1.42023 0.0071,-2.127031 0.045985,-0.2077357 0.3038357,-0.1173535 0.4556937,-0.1364857 0.700848,0.00473 1.404634,-0.00945 2.103645,0.00709 0.02313,0.00736 0.04626,0.014727 0.06939,0.022093 z"
       id="path4479"
       inkscape:connector-curvature="0" />
    <path
       style="fill:#ff0000;stroke-width:0.02338609"
       d="m 8.5986704,9.8909201 c 0.409698,0.011493 0.8254309,-0.01461 1.2313406,0.020484 0.182288,0.064421 0.09243,0.3009899 0.1149914,0.4475519 -0.00119,0.704778 0.01665,1.412423 0.00358,2.115423 -0.045106,0.20849 -0.303848,0.118188 -0.4558046,0.137227 -0.7009746,-0.0048 -1.4049173,0.0095 -2.1040563,-0.0071 -0.2077355,-0.04599 -0.1173533,-0.303836 -0.1364856,-0.455694 0.00476,-0.708775 -0.00949,-1.420504 0.0071,-2.127442 0.046146,-0.2082822 0.30445,-0.1166838 0.4565121,-0.1349419 0.2942762,0.00151 0.5885524,0.00299 0.8828286,0.00448 z"
       id="path4481"
       inkscape:connector-curvature="0" />
    <g
       transform="matrix(-1,0,0,1,13.890626,3.9687427)"
       id="layer1-6"
       inkscape:label="Layer 1">
      <path
         inkscape:connector-curvature="0"
         id="path3749"
         d="M 1.3229166,0.66666665 V 8.6041665"
         style="fill:none;stroke:#000000;stroke-width:0.26458332px;stroke-linecap:butt;stroke-linejoin:miter;stroke-opacity:1" />
      <path
         inkscape:connector-curvature="0"
         id="path3751"
         d="M 3.96875,0.66666665 V 8.6041665"
         style="fill:none;stroke:#000000;stroke-width:0.26458332px;stroke-linecap:butt;stroke-linejoin:miter;stroke-opacity:1" />
      <path
         inkscape:connector-curvature="0"
         id="path3753"
         d="M 6.6145832,8.6041665 V 0.66666665"
         style="fill:none;stroke:#000000;stroke-width:0.26458332px;stroke-linecap:butt;stroke-linejoin:miter;stroke-opacity:1" />
      <path
         inkscape:connector-curvature="0"
         id="path3757"
         d="m 1.3229166,0.66666665 h 7.9375"
         style="fill:none;stroke:#000000;stroke-width:0.26458332px;stroke-linecap:butt;stroke-linejoin:miter;stroke-opacity:1" />
      <path
         inkscape:connector-curvature="0"
         id="path3759"
         d="m 1.3229166,3.3124999 h 7.9375"
         style="fill:none;stroke:#000000;stroke-width:0.26458332px;stroke-linecap:butt;stroke-linejoin:miter;stroke-opacity:1" />
      <path
         inkscape:connector-curvature="0"
         id="path3761"
         d="m 9.2604166,5.9583332 h -7.9375"
         style="fill:none;stroke:#000000;stroke-width:0.26458332px;stroke-linecap:butt;stroke-linejoin:miter;stroke-opacity:1" />
      <circle
         style="stroke-width:0.26458332"
         r="0.13229166"
         cy="0.66665924"
         cx="1.3229166"
         id="path3763" />
      <circle
         style="stroke-width:0.26458332"
         r="0.13229166"
         cy="8.6041594"
         cx="1.3229166"
         id="path3765" />
      <circle
         style="stroke-width:0.26458332"
         r="0.13229166"
         cy="0.66665924"
         cx="9.260417"
         id="path3767" />
      <path
         inkscape:connector-curvature="0"
         id="path3769"
         d="M 1.3229167,8.6041594 H 9.2604168"
         style="fill:none;stroke:#000000;stroke-width:0.26458332px;stroke-linecap:butt;stroke-linejoin:miter;stroke-opacity:1" />
      <path
         inkscape:connector-curvature="0"
         id="path3771"
         d="M 9.2604168,8.6041594 V 0.66665919"
         style="fill:none;stroke:#000000;stroke-width:0.26458332px;stroke-linecap:butt;stroke-linejoin:miter;stroke-opacity:1" />
      <circle
         style="stroke-width:0.26458332"
         r="0.13229166"
         cy="8.6041594"
         cx="9.260417"
         id="path3773" />
    </g>
    <path
       style="fill:none;stroke:#000000;stroke-width:0.26458332px;stroke-linecap:butt;stroke-linejoin:miter;stroke-opacity:1"
       d="M 4.6302088,12.57291 0.66145855,8.6041592"
       id="path4312"
       inkscape:connector-curvature="0" />
    <path
       style="fill:none;stroke:#000000;stroke-width:0.26458332px;stroke-linecap:butt;stroke-linejoin:miter;stroke-opacity:1"
       d="M 4.6302088,4.6354092 0.66145855,0.66665916"
       id="path4314"
       inkscape:connector-curvature="0" />
    <path
       style="fill:none;stroke:#000000;stroke-width:0.26458332px;stroke-linecap:butt;stroke-linejoin:miter;stroke-opacity:1"
       d="M 0.66145855,8.6041592 V 0.66665916"
       id="path4316"
       inkscape:connector-curvature="0" />
    <path
       style="fill:none;stroke:#000000;stroke-width:0.26458332px;stroke-linecap:butt;stroke-linejoin:miter;stroke-opacity:1"
       d="M 12.567709,4.6354092 8.5989588,0.66665916"
       id="path4320"
       inkscape:connector-curvature="0" />
    <path
       style="fill:none;stroke:#000000;stroke-width:0.26458332px;stroke-linecap:butt;stroke-linejoin:miter;stroke-opacity:1"
       d="M 8.5989588,0.66665916 H 0.66145855"
       id="path4322"
       inkscape:connector-curvature="0" />
    <path
       style="fill:none;stroke:#000000;stroke-width:0.26458332px;stroke-linecap:butt;stroke-linejoin:miter;stroke-opacity:1"
       d="M 4.6302088,7.2812425 0.66145855,3.3124926"
       id="path4324"
       inkscape:connector-curvature="0" />
    <path
       style="fill:none;stroke:#000000;stroke-width:0.26458332px;stroke-linecap:butt;stroke-linejoin:miter;stroke-opacity:1"
       d="M 4.6302088,9.9270761 0.66145855,5.9583259"
       id="path4326"
       inkscape:connector-curvature="0" />
    <path
       style="fill:none;stroke:#000000;stroke-width:0.26458332px;stroke-linecap:butt;stroke-linejoin:miter;stroke-opacity:1"
       d="M 3.3072926,11.249993 V 3.3124926"
       id="path4328"
       inkscape:connector-curvature="0" />
    <path
       style="fill:none;stroke:#000000;stroke-width:0.26458332px;stroke-linecap:butt;stroke-linejoin:miter;stroke-opacity:1"
       d="M 1.9843755,1.9895758 V 9.9270761"
       id="path4330"
       inkscape:connector-curvature="0" />
    <path
       style="fill:none;stroke:#000000;stroke-width:0.26458332px;stroke-linecap:butt;stroke-linejoin:miter;stroke-opacity:1"
       d="M 11.244792,3.3124926 H 3.3072926"
       id="path4332"
       inkscape:connector-curvature="0" />
    <path
       style="fill:none;stroke:#000000;stroke-width:0.26458332px;stroke-linecap:butt;stroke-linejoin:miter;stroke-opacity:1"
       d="M 1.9843755,1.9895758 H 9.9218757"
       id="path4334"
       inkscape:connector-curvature="0" />
    <path
       style="fill:none;stroke:#000000;stroke-width:0.26458332px;stroke-linecap:butt;stroke-linejoin:miter;stroke-opacity:1"
       d="M 7.2760421,4.6354092 3.3072926,0.66665916"
       id="path4336"
       inkscape:connector-curvature="0" />
    <path
       style="fill:none;stroke:#000000;stroke-width:0.26458332px;stroke-linecap:butt;stroke-linejoin:miter;stroke-opacity:1"
       d="M 9.9218757,4.6354092 5.9531254,0.66665916 v 0"
       id="path4340"
       inkscape:connector-curvature="0" />
    <circle
       id="path4344"
       cx="-8.598959"
       cy="0.66665912"
       r="0.13229166"
       style="stroke-width:0.26458332"
       transform="scale(-1,1)" />
    <circle
       id="path4346"
       cx="-0.66145951"
       cy="0.66665912"
       r="0.13229166"
       style="stroke-width:0.26458332"
       transform="scale(-1,1)" />
    <circle
       id="path4348"
       cx="-0.66145951"
       cy="8.6041594"
       r="0.13229166"
       style="stroke-width:0.26458332"
       transform="scale(-1,1)" />
  </g>
</svg>
